PathFileType	4	(X/Y/Z)	26_1_15_p1_0-457_filt_butterworth.trc
DataRate	CameraRate	NumFrames	NumMarkers	Units	OrigDataRate	OrigDataStartFrame	OrigNumFrames
60.0	60.0	6	27	m	60.0	171	457
Frame#	Time	RHip			RKnee			RAnkle			RBigToe			RSmallToe			RHeel			LHip			LKnee			LAnkle			LBigToe			LSmallToe			LHeel			Neck			Head			Nose			RShoulder			RElbow			RWrist			RThumb			RIndex			RPinky			LShoulder			LElbow			LWrist			LThumb			LIndex			LPinky			
		X1	Y1	Z1	X2	Y2	Z2	X3	Y3	Z3	X4	Y4	Z4	X5	Y5	Z5	X6	Y6	Z6	X7	Y7	Z7	X8	Y8	Z8	X9	Y9	Z9	X10	Y10	Z10	X11	Y11	Z11	X12	Y12	Z12	X13	Y13	Z13	X14	Y14	Z14	X15	Y15	Z15	X16	Y16	Z16	X17	Y17	Z17	X18	Y18	Z18	X19	Y19	Z19	X20	Y20	Z20	X21	Y21	Z21	X22	Y22	Z22	X23	Y23	Z23	X24	Y24	Z24	X25	Y25	Z25	X26	Y26	Z26	X27	Y27	Z27	
171	2.85	0.2911940624256755	0.44369130276510527	0.9939841168485388	0.26807855833289745	0.045138949164751585	1.0458081340518293	0.24192536128287723	-0.4127232859245294	1.161814969409404	0.21278405492508604	-0.33050853548409376	0.8798927368005901	0.2589445972553737	-0.38564799266043004	0.9663004567500039	0.24295109431430878	-0.4723195794578434	1.2247462380457237	0.07995817438181678	0.45758023286776284	1.0376614626565193	0.09780072863961005	0.052806704970749574	1.0767618106555679	0.13223218726411726	-0.4180229317899481	1.179574839970128	0.0968613668680608	-0.35708711147139255	0.934364837623764	0.05704278027979284	-0.37883684688207525	1.011385350214253	0.1431188668454056	-0.4969211682993209	1.2504765357107224	0.21903964858058658	1.08036385854203	0.985496894579095	0.2275110657165228	1.3247120552597182	0.9423318968444773	0.1932969861233032	1.1998124996806225	0.8852985731021539	0.3783375616138631	0.9683828300898472	0.996498993766188	0.39046151985780486	0.7335438932057743	0.852741593501983	0.24189778803467937	0.8760267894620903	0.8529519918426238	0.17353688081921476	0.9867091763712275	0.8515015363258548	0.16051815413532797	0.9774696924705703	0.8461180039723355	0.15386219835219228	0.9229533458854922	0.8646462967466721	0.07261261286004625	1.0068298094644486	1.0608937928086943	-0.011046339612211884	0.7502084552579134	1.1096746353367815	-0.0011295884829954908	0.6741328943267852	0.9235579765125228	0.03204017042413465	0.6794135944952441	0.7687005203320056	0.01164307332826138	0.664364817618323	0.7400010317240058	-0.009398270685204723	0.6004689258011953	0.8073529595984712	
172	2.8666666666666667	0.29004430051663926	0.4448642571914024	0.992629650344955	0.2680389395212338	0.04455528614200238	1.0465391127026342	0.24222587589246058	-0.4118757039450937	1.1603449872315847	0.21262411937694264	-0.33025225727039687	0.879946388991796	0.25917193518427317	-0.3848931067667559	0.9645116519823845	0.24294352570167835	-0.4723142633732364	1.2247307197660555	0.07926610377699737	0.45702231372503505	1.0397091925600286	0.09784542340330611	0.052498520733684106	1.076800152622041	0.13209716060097165	-0.41788438073874723	1.1794159816554337	0.09708582499534746	-0.3567398662433211	0.9338385959394458	0.05703708711424296	-0.3788398930756603	1.0113606778836552	0.14333597537380743	-0.49726657778941846	1.251250854796722	0.21912909594271235	1.081224092251579	0.985678163009339	0.22539995402535073	1.3249454107068674	0.944524239887163	0.19055389241542464	1.2007072993284662	0.8845750665994154	0.37889293583916195	0.9686462775071452	0.9948356358839876	0.39060644005983514	0.7326676259544203	0.8526378163392485	0.242457903876731	0.8741343226436137	0.8568687125363039	0.17108101760364508	0.9827184123151358	0.8526245108203384	0.15958419768041043	0.9754057261067771	0.847759331171854	0.1528102440245297	0.9186125638799155	0.8649466019260185	0.0733928629653103	1.0064664134925485	1.0630156953917729	-0.007744933273447125	0.7493064850737884	1.1178457346241797	0.0013007610643252145	0.682081543339791	0.9230132876321351	0.03783704910588401	0.6917616607368902	0.7777971972274531	0.013638336650734561	0.676930847038416	0.7401796386616446	-0.001611664217033104	0.617928178213926	0.7955333513966738	
173	2.8833333333333333	0.28886343088870864	0.4460694318642927	0.9909331670807111	0.2680542361371172	0.04380357662562134	1.0473444598249964	0.24250676005053834	-0.4110702744816035	1.1589459594282303	0.21278505000088763	-0.33054564376741147	0.8802981458902777	0.2598566775838792	-0.3836844122649749	0.9623071891993469	0.2429418368910291	-0.47242940872144185	1.224757295937095	0.07844868048596623	0.45627164700493744	1.0421528850413937	0.09782999328910867	0.05195234050117248	1.0768143271510509	0.13194285754765003	-0.4178465032438592	1.1792670176633064	0.09689369827238123	-0.35676660709808594	0.9339776042543064	0.05702347625274069	-0.37886271894864043	1.0113679855449145	0.14345424501306417	-0.4974573378691675	1.2517789274381244	0.21922301444582115	1.082042023490047	0.9857883428276575	0.2231102547162831	1.3247358980755575	0.9465880214957462	0.18721267339353778	1.2020162625967603	0.8823897307274644	0.37961283974319837	0.9689883742603154	0.9922379079793369	0.39094282283674886	0.7320887212463627	0.8533002096296505	0.24343930295021748	0.871461524978864	0.8603406341459634	0.16888502677253597	0.97800389869737	0.8532046631218559	0.15882952868290978	0.9729732245994511	0.8496521903154433	0.15200060283186326	0.9128150220645375	0.8658790456166778	0.07398269244797825	1.0062395395559338	1.0646065280841803	-0.004352344980853786	0.7487583909240996	1.1265805257049486	0.004276958625741354	0.691138637483668	0.9219727705340892	0.0441766171819957	0.7054370945089004	0.7876588333406717	0.01619381352553832	0.6903370191691638	0.741316127771265	0.007102501644892456	0.6362608589163191	0.7861582256032102	
174	2.9	0.2876889586585629	0.4472733733739742	0.9888990724306101	0.26816042668146733	0.042812980298687076	1.0482357005872598	0.2427615743676941	-0.4103286036394826	1.1576572970368717	0.2129239952139496	-0.3309277510278518	0.8805567521153631	0.2606904288768713	-0.38228276251251353	0.9604027412611448	0.2429319275315183	-0.47255894636225804	1.2247912553271654	0.07757595204990025	0.45545051870645736	1.0446055918904569	0.09778029941704716	0.051130881472108036	1.076844434764756	0.13179153239966657	-0.41786928050783007	1.179148477066997	0.09632040321622609	-0.3571419869942758	0.9347188071256233	0.05700557640472191	-0.3788939767970027	1.0113978449800467	0.14354682162404767	-0.4975137419581441	1.2520790973318645	0.2193197044792732	1.082714231166165	0.9857938649471096	0.22086543361023894	1.3243497834344304	0.9482851709048928	0.1836246039627555	1.2036009549769282	0.8789440087446094	0.38050464433399533	0.9693822036510424	0.9890959715029269	0.39151075957539827	0.7317393886826585	0.8546471665174615	0.24487605877648405	0.8680389360424656	0.8627309086715946	0.1671105835111094	0.9727380553731442	0.8529062858151464	0.15840823064692838	0.9701729333278084	0.8517254136523215	0.15172557386348304	0.9061135836074968	0.8673384247577629	0.07425538479573128	1.0062587397465368	1.0652676308371964	-0.0008026921534736417	0.7483416968014769	1.1356408154288276	0.008019009023767535	0.7016696020955161	0.920953074916965	0.050473095247585545	0.7207458636431566	0.796336516392091	0.019395263568526076	0.7058903518523754	0.7432703886743521	0.016443289490446513	0.6542066667691877	0.7812761178651241	
175	2.9166666666666665	0.2865779352505405	0.4484132043123935	0.986636333973419	0.2683569233744599	0.04162129587165636	1.049127125975541	0.24298468416438604	-0.4096704233776797	1.1565142283694831	0.21288083839953986	-0.3311421854290694	0.8806628126691595	0.2613172183160647	-0.38100567577818584	0.9592838305727627	0.24290976316368754	-0.4726436735825471	1.2248122486530766	0.07667482202457027	0.4545828736212055	1.0466999339255625	0.09770648669116107	0.05008281299200934	1.0769130650170364	0.13166690612743712	-0.41798731736402883	1.1791336856115908	0.09555199593412751	-0.35778055698199546	0.9358989671760173	0.056987867779110385	-0.378918597182802	1.0114239316667584	0.14366714303579603	-0.49750846429415	1.252253731601931	0.2194059385953288	1.0831392848905743	0.9857035864840769	0.21875512561450328	1.3240395786659267	0.9495993258405955	0.1801347025848355	1.2052344834145488	0.8748806860155973	0.381470188176638	0.9697779579083863	0.9858484289228979	0.39216080861086855	0.7315147206199791	0.8561741053888086	0.24655026468666774	0.8645130670530122	0.8629784021025619	0.16590642981687903	0.9670730656730213	0.8516182830962735	0.1585441132623388	0.9670638828058872	0.8535918579035703	0.15232073726788153	0.899588768966919	0.869017157323803	0.07411609772743089	1.0065641481439354	1.0648335494270056	0.0028223645276791005	0.7475930473692068	1.1449409637603698	0.012512939586321891	0.7137092848978761	0.9205528889180177	0.05648606839615601	0.7371386814560796	0.8025325318127974	0.023780032048852075	0.723798745355893	0.7464822310757251	0.0260237327315464	0.6710613228644463	0.7822781667852755	
176	2.933333333333333	0.28557729959537714	0.4493930563831335	0.984300738168747	0.26859153562617233	0.040326316783892535	1.0498516410258043	0.24316995811155503	-0.4091151358885515	1.155550010855088	0.2127539034386119	-0.33117773105787246	0.8806965045583429	0.26148677856447644	-0.3801712748699505	0.9592171947571789	0.2428803436082004	-0.4726886368523399	1.2248212457307266	0.07574354875773469	0.45362145230471684	1.0482858978027996	0.09761276184222825	0.04890264281215029	1.0770102477199	0.13158694881557104	-0.4182767295801235	1.1793103622638803	0.09482575608310219	-0.3585334581966542	0.9372503922922514	0.05697559469077525	-0.37892938459093517	1.0114251547047979	0.14381379724766652	-0.49752267623931284	1.2524205263332537	0.21946253868389431	1.0831864279823582	0.9855672932118604	0.2167121474269189	1.3239766383526912	0.9507847031323149	0.1770105174737453	1.2066516524431556	0.871191080207988	0.38237429568417974	0.9701209003844389	0.9829689227913812	0.39269481116219107	0.7313394210963662	0.8573591634553397	0.24801868765483798	0.8617407194396015	0.860318925348758	0.16526703477372312	0.961202034759422	0.8496397962422304	0.15928959807525003	0.9635942124638497	0.8547170357713907	0.1537536778545465	0.8942533669136652	0.8707326617142124	0.07363211178309816	1.0071173855757414	1.063483877643761	0.006067772372934531	0.7460553594329518	1.1541124490548111	0.01738756223889059	0.7267029470371088	0.9212300407130334	0.06213686557402903	0.753692597692819	0.8058743508391216	0.02994411779585932	0.7427810886037589	0.7516705257814056	0.03538325947881614	0.687036897352495	0.7892198334330252	
